<?xml version="1.0" encoding="utf-8"?>
<!-- Generator: Adobe Illustrator 16.0.3, SVG Export Plug-In . SVG Version: 6.00 Build 0)  -->
<!DOCTYPE svg PUBLIC "-//W3C//DTD SVG 1.1//EN" "http://www.w3.org/Graphics/SVG/1.1/DTD/svg11.dtd">
<svg viewBox="0 0 311 77" style="background-color:#ffffff00" version="1.1"
    xmlns="http://www.w3.org/2000/svg" xmlns:xlink="http://www.w3.org/1999/xlink" xml:space="preserve">
    <g fill="#000000">
        <path d="M 64.9502 29.9102 L 64.9502 17.4302 L 17.3701 17.4102 L 17.3701 29.9102 L 64.9502 29.9102 ZM 82.3301 29.9702 C 82.3301 39.5498 74.5498 47.3301 64.9502 47.3301 L 17.3701 47.3101 L 17.3701 67.75 C 17.3701 72.5498 13.48 76.4399 8.6802 76.4399 C 3.8901 76.4399 0 72.5498 0 67.75 L 0 8.7202 C 0 3.9302 3.8901 0.04 8.6802 0.04 L 64.9502 0.0601 C 74.5498 0.0601 82.3301 7.8301 82.3301 17.4302 L 82.3301 29.9702 Z"/>
        <path d="M 98.3599 76.46 C 103.1602 76.46 107.0498 72.5801 107.0498 67.77 L 107.0498 8.73 C 107.0498 3.9302 103.1602 0.0498 98.3599 0.0498 C 93.5698 0.0498 89.6802 3.9302 89.6802 8.73 L 89.6802 67.77 C 89.6802 72.5801 93.5698 76.46 98.3599 76.46 Z"/>
        <path d="M 131.71 67.75 C 131.71 72.5498 127.8101 76.4399 123.02 76.4399 C 118.23 76.4399 114.3398 72.5498 114.3398 67.75 L 114.3501 11.98 C 114.3501 5.3901 119.6899 0.0498 126.29 0.0498 C 129.3398 0.0498 132.3999 1.21 134.73 3.5498 L 183.7998 51.8999 L 183.8101 8.7202 C 183.8101 3.9302 187.6899 0.04 192.48 0.04 C 197.2798 0.04 201.1699 3.9302 201.1699 8.7202 L 201.1802 64.5098 C 201.1802 71.1001 195.8398 76.4502 189.2402 76.4502 C 186.1899 76.4502 183.1401 75.2798 180.7998 72.9502 L 131.71 23.8398 L 131.71 67.75 Z"/>
        <path d="M 225.8701 76.46 C 216.2598 76.46 208.5 68.6802 208.5 59.0898 L 208.5 17.4302 C 208.5 7.8301 216.2598 0.0601 225.8701 0.0601 L 281.1899 0.04 C 285.9902 0.04 289.8799 3.9302 289.8799 8.7202 C 289.8799 13.5098 285.9902 17.4102 281.1899 17.4102 L 225.8599 17.4199 L 225.8599 59.0898 L 277.25 59.0898 L 277.25 46.9302 L 246.3398 46.9199 C 241.5498 46.9199 237.6602 43.04 237.6602 38.2402 C 237.6602 33.4399 241.5498 29.5498 246.3398 29.5498 L 277.23 29.6001 C 286.8301 29.6001 294.6001 37.3799 294.6001 46.9702 L 294.6001 59.0898 C 294.6001 68.6802 286.8301 76.46 277.23 76.46 L 225.8701 76.46 Z"/>
        <path d="M 300.52 8.0698 L 302.1699 8.0698 C 303.5498 8.0698 304.8301 8 304.8301 6.4102 C 304.8301 5.0601 303.6699 4.8599 302.6099 4.8599 L 300.52 4.8599 L 300.52 8.0698 ZM 298.9502 3.5898 L 302.8701 3.5898 C 305.27 3.5898 306.4102 4.5298 306.4102 6.48 C 306.4102 8.3101 305.25 9.0698 303.7402 9.23 L 306.6299 13.7002 L 304.9399 13.7002 L 302.1899 9.3501 L 300.52 9.3501 L 300.52 13.7002 L 298.9502 13.7002 L 298.9502 3.5898 ZM 302.3301 16.0298 C 306.3301 16.0298 309.4399 12.8398 309.4399 8.6001 C 309.4399 4.4702 306.3301 1.2798 302.3301 1.2798 C 298.2798 1.2798 295.1699 4.4702 295.1699 8.6001 C 295.1699 12.8398 298.2798 16.0298 302.3301 16.0298 ZM 302.3301 0 C 307.0498 0 311.0098 3.73 311.0098 8.6001 C 311.0098 13.5801 307.0498 17.2998 302.3301 17.2998 C 297.5898 17.2998 293.6001 13.5801 293.6001 8.6001 C 293.6001 3.73 297.5898 0 302.3301 0 Z"/>
    </g>
</svg>
